<?xml version="1.0" encoding="UTF-8"?>
<svg xmlns="http://www.w3.org/2000/svg" version="1.1" xmlns:xlink="http://www.w3.org/1999/xlink" viewBox="0 0 235.3 235.3">
  <defs>
    <style>
      .cls-1 {
        fill: url(#linear-gradient);
      }

      .cls-1, .cls-2 {
        stroke-linejoin: round;
      }

      .cls-1, .cls-2, .cls-3 {
        stroke-width: 4px;
      }

      .cls-1, .cls-3 {
        stroke: #000;
      }

      .cls-4 {
        fill: #222323;
      }

      .cls-2 {
        fill: none;
        stroke: #222323;
        stroke-linecap: round;
      }

      .cls-5 {
        opacity: .3;
      }

      .cls-5, .cls-6 {
        isolation: isolate;
      }

      .cls-5, .cls-6, .cls-7 {
        fill: #fff;
      }

      .cls-3 {
        fill: #ffb939;
      }

      .cls-8 {
        display: none;
      }

      .cls-6 {
        opacity: .2;
      }

      .cls-7 {
        fill-opacity: 0;
      }
    </style>
    <linearGradient id="linear-gradient" x1="117.5" y1="48.6" x2="117.5" y2="116.5" gradientTransform="translate(0 247.2) scale(1 -1)" gradientUnits="userSpaceOnUse">
      <stop offset="0" stop-color="#ff3b3b"/>
      <stop offset=".4" stop-color="#ff4b3b"/>
      <stop offset="1" stop-color="#ff6e3b"/>
    </linearGradient>
  </defs>
  <!-- Generator: Adobe Illustrator 28.7.4, SVG Export Plug-In . SVG Version: 1.2.0 Build 166)  -->
  <g>
    <g id="Layer_1">
      <g>
        <g id="Layer_1-2" data-name="Layer_1">
          <path class="cls-2" d="M199.7,205.9h17.1l-77.9-104.5h-7.1l-11.1,16.5h-6.1l-11.1-16.5h-7.1L18.5,205.9h17.1M35.7,205.9l55.9-73.3M145.9,133.7l53.8,72.2"/>
          <path class="cls-4" d="M107.9,98.7c-4.5-13.6-16.2-25.3-30.8-26.6-2.6-.3-2.2-4.2.4-4,15.3,2.7,26.9,15.8,30.3,30.6h.1Z"/>
          <circle class="cls-3" cx="65.5" cy="68.1" r="16"/>
          <path class="cls-4" d="M117.7,104.1l-2-44c0-1.1.8-2,1.9-2.1,1.2,0,2.1.9,2.1,2.1l-2,44h0Z"/>
          <circle class="cls-3" cx="117.7" cy="42.7" r="16"/>
          <path class="cls-4" d="M127.6,98.7c3.4-14.7,14.9-27.7,30.2-30.5,2.7-.4,3.3,3.6.6,4-14.6,1.3-26.3,13-30.8,26.6h0Z"/>
          <circle class="cls-3" cx="169.8" cy="68.1" r="16"/>
          <path class="cls-1" d="M66.9,198.6l50.7-67.9,50.7,67.9h-101.5.1Z"/>
        </g>
        <g id="Layer_3" class="cls-8">
          <path class="cls-5" d="M7.5,12.2h0c1.7,0,3,1.3,3,3v135.7c0,1.7-1.3,3-3,3h0c-1.7,0-3-1.3-3-3V15.2c0-1.7,1.3-3,3-3Z"/>
          <path class="cls-6" d="M7.5,181.9h0c1.7,0,3,1.3,3,3v33.8c0,1.7-1.3,3-3,3h0c-1.7,0-3-1.3-3-3v-33.8c0-1.7,1.3-3,3-3Z"/>
          <path class="cls-6" d="M220.9,6.9h0c0,1.7-1.3,3-3,3H82.2c-1.7,0-3-1.3-3-3h0c0-1.7,1.3-3,3-3h135.7c1.7,0,3,1.3,3,3Z"/>
          <path class="cls-5" d="M58.4,6.9h0c0,1.7-1.3,3-3,3H21.6c-1.7,0-3-1.3-3-3h0c0-1.7,1.3-3,3-3h33.8c1.7,0,3,1.3,3,3Z"/>
          <path class="cls-6" d="M18.6,228.7h0c0-1.7,1.3-3,3-3h135.7c1.7,0,3,1.3,3,3h0c0,1.7-1.3,3-3,3H21.6c-1.7,0-3-1.3-3-3Z"/>
          <path class="cls-7" d="M181.1,228.8h0c0-1.7,1.3-3,3-3h33.8c1.7,0,3,1.3,3,3h0c0,1.7-1.3,3-3,3h-33.8c-1.7,0-3-1.3-3-3Z"/>
          <path class="cls-5" d="M229.2,221.7h0c-1.7,0-3-1.3-3-3V83c0-1.7,1.3-3,3-3h0c1.7,0,3,1.3,3,3v135.7c0,1.7-1.3,3-3,3Z"/>
          <path class="cls-7" d="M229.2,59.2h0c-1.7,0-3-1.3-3-3V22.4c0-1.7,1.3-3,3-3h0c1.7,0,3,1.3,3,3v33.8c0,1.7-1.3,3-3,3Z"/>
        </g>
      </g>
    </g>
  </g>
</svg>